<svg id="Layer_1" data-name="Layer 1" xmlns="http://www.w3.org/2000/svg" viewBox="0 0 222.76 258.39"><defs><style>.cls-1{fill:#fff;}</style></defs><title>small white</title><path class="cls-1" d="M222.76.56a54.49,54.49,0,0,0-8.74,3c-1.44.59-2.82,1.29-4.21,2s-2.74,1.45-4.1,2.17a107.08,107.08,0,0,0-15.28,10.48c-2.45,1.89-4.69,4-7,6.07-1.11,1.06-2.19,2.17-3.29,3.25s-2.2,2.17-3.21,3.34l-3.11,3.43c-1,1.13-2,2.38-3,3.56s-2,2.38-2.91,3.59l-2.74,3.74a194.31,194.31,0,0,0-18.73,31.87l-2,4.2-1,2.1-.88,2.14-3.5,8.57c-2,5.84-4.27,11.6-6,17.55l-1.35,4.43c-.46,1.47-.91,3-1.27,4.45l-2.32,9c-.83,3-1.39,6-2,9s-1.3,6-1.9,9.07l-1.63,9.13c-.54,3-1.13,6.07-1.53,9.14l-1.4,9.17-.73,4.58-.56,4.61-1.2,9.21c-.19,1.53-.42,3.07-.58,4.61l-.46,4.62-1,9.25-.48,4.63-.37,4.64-.74,9.28c-.25,3.1-.58,6.19-.72,9.3-.39,6.2-.77,12.41-1.29,18.63h-.57c-.33-6.22-.53-12.46-.74-18.7-.13-3.12,0-6.24,0-9.36l.11-9.37q.4-18.74,2.39-37.43l.48-4.67.65-4.65,1.36-9.3c.41-3.1,1.1-6.16,1.68-9.24l1.82-9.22a375.25,375.25,0,0,1,10.07-36.23c1.85-6,4.25-11.8,6.46-17.66l3.75-8.63.94-2.16,1-2.11,2.08-4.22a198.24,198.24,0,0,1,19.78-32l2.9-3.71c1-1.21,2.05-2.38,3.07-3.57s2-2.41,3.12-3.53l3.26-3.39c1.06-1.15,2.21-2.23,3.36-3.29s2.27-2.16,3.44-3.21c2.4-2,4.74-4.11,7.28-6A108.17,108.17,0,0,1,205.13,6.67c1.41-.68,2.8-1.41,4.23-2.06s2.85-1.28,4.32-1.83a55.47,55.47,0,0,1,9-2.78Z"/><path class="cls-1" d="M91.16,116.85A192.06,192.06,0,0,1,110.52,74.6a163.84,163.84,0,0,1,13.67-18.79l1.86-2.23c.62-.74,1.3-1.44,2-2.15,1.32-1.42,2.6-2.87,3.95-4.26l4.13-4.07c1.35-1.38,2.85-2.61,4.27-3.92A160.28,160.28,0,0,1,158.7,25.07a170,170,0,0,1,20.14-11.3,164.14,164.14,0,0,1,21.45-8.4A130.94,130.94,0,0,1,222.7.28,131.57,131.57,0,0,0,200.51,6a162.78,162.78,0,0,0-21,9A166.51,166.51,0,0,0,159.9,26.84a158.54,158.54,0,0,0-17.62,14.43c-1.36,1.34-2.79,2.58-4.08,4l-3.92,4.12c-1.28,1.4-2.49,2.86-3.74,4.28-.61.73-1.25,1.42-1.84,2.17L127,58.05a157.72,157.72,0,0,0-12.77,18.76A186.93,186.93,0,0,0,96.6,118.49Z"/><path class="cls-1" d="M72.29,67.41A128.2,128.2,0,0,1,86.45,51.34,150.69,150.69,0,0,1,103.08,38a185.72,185.72,0,0,1,18.26-10.83c6.3-3.21,12.76-6.08,19.31-8.67A271.14,271.14,0,0,1,181.06,6.4,288.73,288.73,0,0,1,222.7.28a286.75,286.75,0,0,0-41.37,7.26,271,271,0,0,0-39.8,13.11c-6.41,2.75-12.71,5.75-18.82,9.08A183.2,183.2,0,0,0,105.1,40.85,148.1,148.1,0,0,0,89.3,54.27,122.22,122.22,0,0,0,76.11,70.1Z"/><path class="cls-1" d="M49.74,33A129.5,129.5,0,0,1,70,23.65c7-2.57,14-4.77,21.18-6.67s14.36-3.53,21.6-5,14.52-2.7,21.81-3.84c14.6-2.22,29.27-3.93,44-5.22S208,.69,222.7.28C208,.89,193.26,2,178.59,3.5S149.3,6.88,134.76,9.29q-10.89,1.85-21.71,4.12C105.86,15,98.71,16.7,91.62,18.67S77.55,22.93,70.7,25.56A127.58,127.58,0,0,0,50.93,35Z"/><path class="cls-1" d="M.11,0a55.78,55.78,0,0,1,9,2.78C10.55,3.33,12,4,13.4,4.61S16.21,6,17.62,6.67A108.26,108.26,0,0,1,33.41,16.83c2.54,1.84,4.87,3.94,7.28,6,1.16,1,2.29,2.14,3.44,3.21s2.3,2.14,3.36,3.29l3.26,3.39c1.1,1.12,2.07,2.35,3.12,3.53s2.06,2.36,3.07,3.57l2.89,3.71a197.59,197.59,0,0,1,19.79,32l2.08,4.22,1,2.11.94,2.16,3.76,8.63c2.21,5.86,4.6,11.67,6.46,17.66A375.25,375.25,0,0,1,104,146.45l1.81,9.22c.59,3.08,1.28,6.14,1.69,9.24l1.36,9.3.64,4.65.49,4.67q2,18.67,2.39,37.43l.11,9.37c0,3.12.08,6.24,0,9.36-.2,6.24-.4,12.48-.74,18.7h-.57c-.52-6.22-.9-12.43-1.29-18.63-.13-3.11-.46-6.2-.71-9.3l-.75-9.28-.36-4.64-.49-4.63-1-9.25-.45-4.62c-.16-1.54-.39-3.08-.58-4.61l-1.2-9.21-.57-4.61L103,175l-1.39-9.17c-.41-3.07-1-6.1-1.53-9.14l-1.64-9.13c-.6-3-1.27-6.05-1.9-9.07s-1.22-6.07-2-9l-2.32-9c-.36-1.5-.82-3-1.27-4.45l-1.35-4.43c-1.7-6-3.93-11.71-6-17.55l-3.5-8.57-.87-2.14-1-2.1-1.95-4.2A194.31,194.31,0,0,0,57.56,45.19l-2.74-3.74c-1-1.21-2-2.39-2.92-3.59s-1.91-2.43-3-3.56l-3.11-3.43c-1-1.17-2.11-2.25-3.21-3.34s-2.18-2.19-3.3-3.25c-2.31-2.05-4.55-4.18-7-6.07A107.64,107.64,0,0,0,17.05,7.73C15.68,7,14.34,6.24,13,5.56s-2.78-1.37-4.21-2A54.83,54.83,0,0,0,0,.56Z"/><path class="cls-1" d="M126.15,118.49a186.9,186.9,0,0,0-17.57-41.68A158,158,0,0,0,95.81,58.06l-1.75-2.24c-.59-.75-1.23-1.44-1.84-2.17-1.25-1.42-2.47-2.88-3.74-4.28l-3.93-4.12c-1.28-1.4-2.72-2.64-4.07-4A157.73,157.73,0,0,0,62.85,26.84,165.57,165.57,0,0,0,43.29,15.05a163.51,163.51,0,0,0-21-9A131.33,131.33,0,0,0,.05.28,131.05,131.05,0,0,1,22.47,5.37a164.69,164.69,0,0,1,21.45,8.4,169.86,169.86,0,0,1,20.13,11.3A158.55,158.55,0,0,1,82.4,39.18c1.42,1.31,2.92,2.54,4.28,3.92l4.13,4.07c1.34,1.39,2.63,2.84,4,4.26.65.71,1.32,1.41,1.95,2.15l1.86,2.23A162.57,162.57,0,0,1,112.23,74.6a192.1,192.1,0,0,1,19.37,42.25Z"/><path class="cls-1" d="M146.65,70.1a122.89,122.89,0,0,0-13.19-15.83,149.09,149.09,0,0,0-15.8-13.42,184.36,184.36,0,0,0-17.61-11.11c-6.11-3.34-12.41-6.34-18.82-9.09A271,271,0,0,0,41.43,7.54,286.64,286.64,0,0,0,.05.28,288.73,288.73,0,0,1,41.69,6.4,272.8,272.8,0,0,1,82.11,18.49c6.55,2.59,13,5.46,19.31,8.67A187.71,187.71,0,0,1,119.68,38a153.05,153.05,0,0,1,16.63,13.35,128.2,128.2,0,0,1,14.16,16.07Z"/><path class="cls-1" d="M171.84,35a128.6,128.6,0,0,0-19.78-9.43c-6.84-2.63-13.83-4.9-20.91-6.89s-14.24-3.7-21.44-5.26S95.27,10.53,88,9.3C73.47,6.88,58.84,5,44.17,3.5S14.79.89.05.28C14.8.69,29.53,1.64,44.23,2.92s29.36,3,44,5.22Q99.13,9.85,110,12c7.24,1.47,14.44,3.12,21.6,5s14.22,4.1,21.18,6.68A129.42,129.42,0,0,1,173,33Z"/></svg>